<?xml version="1.0" encoding="UTF-8" standalone="no"?>
<!-- Generator: Adobe Illustrator 16.0.2, SVG Export Plug-In . SVG Version: 6.00 Build 0)  -->

<svg
   xmlns:dc="http://purl.org/dc/elements/1.1/"
   xmlns:cc="http://creativecommons.org/ns#"
   xmlns:rdf="http://www.w3.org/1999/02/22-rdf-syntax-ns#"
   xmlns:svg="http://www.w3.org/2000/svg"
   xmlns="http://www.w3.org/2000/svg"
   xmlns:sodipodi="http://sodipodi.sourceforge.net/DTD/sodipodi-0.dtd"
   xmlns:inkscape="http://www.inkscape.org/namespaces/inkscape"
   version="1.1"
   id="Layer_1"
   x="0px"
   y="0px"
   width="129"
   height="45"
   viewBox="0 0 129 45"
   enable-background="new 0 0 176 38"
   xml:space="preserve"
   sodipodi:docname="logo.svg"
   inkscape:version="0.92.3 (2405546, 2018-03-11)"><metadata
   id="metadata53"><rdf:RDF><cc:Work
       rdf:about=""><dc:format>image/svg+xml</dc:format><dc:type
         rdf:resource="http://purl.org/dc/dcmitype/StillImage" /><dc:title></dc:title></cc:Work></rdf:RDF></metadata><defs
   id="defs51" /><sodipodi:namedview
   pagecolor="#ffffff"
   bordercolor="#666666"
   borderopacity="1"
   objecttolerance="10"
   gridtolerance="10"
   guidetolerance="10"
   inkscape:pageopacity="0"
   inkscape:pageshadow="2"
   inkscape:window-width="1920"
   inkscape:window-height="1020"
   id="namedview49"
   showgrid="false"
   inkscape:zoom="2.5227273"
   inkscape:cx="78.09009"
   inkscape:cy="19"
   inkscape:window-x="0"
   inkscape:window-y="0"
   inkscape:window-maximized="1"
   inkscape:current-layer="Layer_1" />

<g
   id="g14"
   transform="matrix(0.8566034,0,0,-0.8566034,-58.073683,-86.814104)"><path
     d="m 71.602,-147.398 v 46.082"
     style="fill:none;stroke:#ffed00;stroke-width:7;stroke-linecap:butt;stroke-linejoin:miter;stroke-miterlimit:10;stroke-dasharray:none;stroke-opacity:1"
     id="path16"
     inkscape:connector-curvature="0" /></g><g
   id="g18"
   transform="matrix(0.74318823,0,0,-0.8566034,-58.073683,-86.814104)"><path
     d="m 247.738,-154.52 v 46.036"
     style="fill:none;stroke:#666666;stroke-width:8.06824303;stroke-linecap:butt;stroke-linejoin:miter;stroke-miterlimit:10;stroke-dasharray:none;stroke-opacity:1"
     id="path20"
     inkscape:connector-curvature="0" /></g><g
   id="g22"
   transform="matrix(0.85501012,0,0,-0.8566034,-58.073683,-86.814104)"
   style="opacity:1"><path
     d="m 75.195,-104.832 143.646,-0.152"
     style="fill:none;stroke:#e62d20;stroke-width:7.00020504;stroke-linecap:butt;stroke-linejoin:miter;stroke-miterlimit:10;stroke-dasharray:none;stroke-opacity:1"
     id="path24"
     inkscape:connector-curvature="0" /></g><path
   d="m 22.764837,13.197768 c -0.250986,-0.254412 -0.612475,-0.378619 -1.084459,-0.378619 -0.471137,0 -0.832619,0.124207 -1.083606,0.378619 -0.254411,0.250985 -0.398321,0.588486 -0.438583,1.014218 -0.02313,0.260408 -0.03681,0.59534 -0.03681,0.99366 0,0.391468 0.01368,0.732396 0.03681,1.020215 0.04028,0.421449 0.184172,0.759807 0.438583,1.014218 0.250987,0.250985 0.612469,0.374336 1.083606,0.374336 0.471984,0 0.833473,-0.123351 1.084459,-0.374336 0.254412,-0.254411 0.398321,-0.592769 0.438577,-1.014218 0.02313,-0.287819 0.03681,-0.628747 0.03681,-1.020215 0,-0.39832 -0.01368,-0.733252 -0.03681,-0.99366 -0.04028,-0.425732 -0.184165,-0.763233 -0.438577,-1.014218 m 0.883157,-1.867395 c 0.55251,0.287818 0.977389,0.679286 1.278911,1.170977 0.297244,0.492546 0.465136,1.040772 0.495119,1.649817 0.01625,0.221004 0.02313,0.582491 0.02313,1.077608 0,0.488264 -0.0069,0.839471 -0.02313,1.057048 -0.03,0.605619 -0.197875,1.154701 -0.495119,1.646392 -0.301522,0.49169 -0.726401,0.883158 -1.278911,1.170976 -0.551648,0.287819 -1.207811,0.431729 -1.967613,0.431729 -0.758955,0 -1.415111,-0.14391 -1.966766,-0.431729 -0.552509,-0.287818 -0.977383,-0.679286 -1.275481,-1.170976 -0.300667,-0.491691 -0.468559,-1.040773 -0.498543,-1.646392 -0.01625,-0.431728 -0.02313,-0.786362 -0.02313,-1.057048 0,-0.270687 0.0069,-0.628747 0.02313,-1.077608 0.03,-0.609045 0.197876,-1.157271 0.498543,-1.649817 0.298098,-0.491691 0.722972,-0.883159 1.275481,-1.170977 0.551655,-0.287819 1.207811,-0.431728 1.966766,-0.431728 0.759802,0 1.415965,0.143909 1.967613,0.431728"
   style="fill:#666666;fill-opacity:1;fill-rule:nonzero;stroke:none;stroke-width:0.85660338"
   id="path26"
   inkscape:connector-curvature="0" /><path
   d="m 29.932038,14.773918 c 0.351203,0 0.633028,-0.07709 0.843753,-0.234709 0.214148,-0.153332 0.317802,-0.391468 0.317802,-0.712694 0,-0.321227 -0.103654,-0.558505 -0.317802,-0.712694 -0.210725,-0.156759 -0.49255,-0.233853 -0.843753,-0.233853 h -1.475071 v 1.89395 z m 2.499565,-3.041799 c 0.589347,0.478842 0.88059,1.174404 0.88059,2.094396 0,0.919992 -0.291243,1.619836 -0.88059,2.098678 -0.588487,0.477985 -1.401401,0.71869 -2.43875,0.71869 h -1.535886 v 2.446459 c 0,0.08994 -0.03341,0.163612 -0.09765,0.227001 -0.06341,0.06767 -0.140485,0.09765 -0.227004,0.09765 H 26.56302 c -0.0908,0 -0.164468,-0.02998 -0.227859,-0.09765 -0.06681,-0.06339 -0.0968,-0.137057 -0.0968,-0.227001 v -7.746264 c 0,-0.08737 0.03,-0.164468 0.0968,-0.227856 0.06341,-0.06339 0.137055,-0.0968 0.227859,-0.0968 h 3.429836 c 1.037349,0 1.850263,0.237279 2.43875,0.712694"
   style="fill:#666666;fill-opacity:1;fill-rule:nonzero;stroke:none;stroke-width:0.85660338"
   id="path28"
   inkscape:connector-curvature="0" /><path
   d="m 38.903246,16.259269 -0.970534,-2.877331 -0.973958,2.877331 z m 3.152296,2.710292 c 0.03341,0.08052 0.04966,0.140483 0.04966,0.180744 0,0.07367 -0.02653,0.13363 -0.08052,0.187596 -0.04966,0.04968 -0.113071,0.07709 -0.183311,0.07709 h -1.512764 c -0.13363,0 -0.240707,-0.02998 -0.317802,-0.0908 -0.07366,-0.05996 -0.124205,-0.130203 -0.147333,-0.210724 l -0.3375,-0.99366 h -3.189131 l -0.338361,0.99366 c -0.02313,0.08052 -0.07367,0.150762 -0.147333,0.210724 -0.07624,0.06082 -0.183318,0.0908 -0.317802,0.0908 h -1.511903 c -0.07367,0 -0.134491,-0.02741 -0.187597,-0.07709 -0.05056,-0.05397 -0.07709,-0.113928 -0.07709,-0.187596 0,-0.04026 0.01715,-0.100223 0.04709,-0.180744 l 2.616067,-7.555241 c 0.04028,-0.110502 0.104501,-0.203872 0.19102,-0.280966 0.08737,-0.07367 0.20387,-0.113929 0.347779,-0.113929 h 1.944492 c 0.143909,0 0.257835,0.04026 0.347779,0.113929 0.08737,0.07709 0.150764,0.170464 0.191027,0.280966 z"
   style="fill:#666666;fill-opacity:1;fill-rule:nonzero;stroke:none;stroke-width:0.85660338"
   id="path30"
   inkscape:connector-curvature="0" /><path
   d="m 49.731565,19.150305 c 0,0.07367 -0.02743,0.13363 -0.07709,0.187596 -0.05397,0.04968 -0.113926,0.07709 -0.187596,0.07709 h -1.907658 c -0.103647,0 -0.190166,-0.02056 -0.260405,-0.06682 -0.07367,-0.04369 -0.150764,-0.113928 -0.227859,-0.208154 l -2.268288,-2.854203 v 2.804519 c 0,0.08994 -0.03341,0.163612 -0.09765,0.227001 -0.06341,0.06424 -0.137055,0.09765 -0.226998,0.09765 h -1.5693 c -0.0908,0 -0.164468,-0.03341 -0.227852,-0.09765 -0.06341,-0.06339 -0.0968,-0.137057 -0.0968,-0.227001 v -7.746255 c 0,-0.08737 0.03341,-0.164468 0.0968,-0.227856 0.06341,-0.06339 0.137054,-0.0968 0.227852,-0.0968 h 1.5693 c 0.08994,0 0.163613,0.03341 0.226998,0.0968 0.06424,0.06339 0.09765,0.140482 0.09765,0.227856 v 2.52955 l 2.110676,-2.589512 c 0.06424,-0.08052 0.127629,-0.143909 0.19102,-0.191022 0.06341,-0.05054 0.161044,-0.07367 0.287819,-0.07367 h 1.870822 c 0.07367,0 0.13363,0.02655 0.186741,0.07709 0.05056,0.05311 0.07709,0.117355 0.07709,0.187596 0,0.04626 -0.0094,0.08994 -0.03681,0.130204 l -2.961282,3.623431 3.166006,3.98235 c 0.02313,0.02998 0.03681,0.07367 0.03681,0.130204"
   style="fill:#666666;fill-opacity:1;fill-rule:nonzero;stroke:none;stroke-width:0.85660338"
   id="path32"
   inkscape:connector-curvature="0" /><path
   d="m 55.085341,13.197768 c -0.250987,-0.254412 -0.612476,-0.378619 -1.08446,-0.378619 -0.47199,0 -0.833479,0.124207 -1.08446,0.378619 -0.254411,0.250985 -0.39832,0.588486 -0.437728,1.014218 -0.02396,0.260408 -0.03681,0.59534 -0.03681,0.99366 0,0.391468 0.01285,0.732396 0.03681,1.020215 0.03938,0.421449 0.183317,0.759807 0.437728,1.014218 0.250981,0.250985 0.61247,0.374336 1.08446,0.374336 0.471984,0 0.833473,-0.123351 1.08446,-0.374336 0.25355,-0.254411 0.39746,-0.592769 0.437722,-1.014218 0.02396,-0.287819 0.03681,-0.628747 0.03681,-1.020215 0,-0.39832 -0.01285,-0.733252 -0.03681,-0.99366 -0.04028,-0.425732 -0.184172,-0.763233 -0.437722,-1.014218 m 0.883154,-1.867395 c 0.551655,0.287818 0.976528,0.679286 1.278057,1.170977 0.298098,0.492546 0.465135,1.040772 0.495112,1.649817 0.01715,0.221004 0.02313,0.582491 0.02313,1.077608 0,0.488264 -0.0058,0.839471 -0.02313,1.057048 -0.03,0.605619 -0.197014,1.154701 -0.495112,1.646392 -0.301529,0.49169 -0.726402,0.883158 -1.278057,1.170976 -0.552509,0.287819 -1.207811,0.431729 -1.967614,0.431729 -0.759809,0 -1.415111,-0.14391 -1.96762,-0.431729 -0.551655,-0.287818 -0.977382,-0.679286 -1.274626,-1.170976 -0.301522,-0.491691 -0.46856,-1.040773 -0.498543,-1.646392 -0.01715,-0.431728 -0.02396,-0.786362 -0.02396,-1.057048 0,-0.270687 0.0069,-0.628747 0.02396,-1.077608 0.03,-0.609045 0.197021,-1.157271 0.498543,-1.649817 0.297244,-0.491691 0.722971,-0.883159 1.274626,-1.170977 0.552509,-0.287819 1.207811,-0.431728 1.96762,-0.431728 0.759803,0 1.415105,0.143909 1.967614,0.431728"
   style="fill:#666666;fill-opacity:1;fill-rule:nonzero;stroke:none;stroke-width:0.85660338"
   id="path34"
   inkscape:connector-curvature="0" /><path
   d="m 65.236946,11.344078 c 0.02313,-0.113928 0.07025,-0.194449 0.137061,-0.244132 0.07024,-0.05397 0.147334,-0.08052 0.234707,-0.08052 h 1.572724 c 0.07367,0 0.13363,0.02655 0.184172,0.08052 0.05313,0.04968 0.07966,0.113929 0.07966,0.18417 l -0.01285,0.0968 -1.546171,7.57837 c -0.01715,0.110502 -0.08395,0.214151 -0.197876,0.311804 -0.116496,0.0968 -0.250126,0.143909 -0.40089,0.143909 h -0.997082 c -0.150764,0 -0.28097,-0.04711 -0.385471,-0.137057 -0.103653,-0.09423 -0.173893,-0.197875 -0.214155,-0.318656 l -0.899434,-2.710293 -0.900288,2.710293 c -0.04028,0.120781 -0.110502,0.224431 -0.214149,0.318657 -0.103653,0.08994 -0.234713,0.137057 -0.384617,0.137057 h -0.993662 c -0.154188,0 -0.287818,-0.04711 -0.401745,-0.14391 -0.117356,-0.09765 -0.184171,-0.201302 -0.201299,-0.311804 l -1.545317,-7.57837 -0.01368,-0.0968 c 0,-0.07024 0.02653,-0.134486 0.08052,-0.18417 0.04966,-0.05397 0.113933,-0.08052 0.187596,-0.08052 h 1.5693 c 0.08652,0 0.163613,0.02655 0.233853,0.08052 0.06681,0.04968 0.113926,0.130204 0.137054,0.244132 l 0.766664,4.051735 0.709268,-2.168064 c 0.08052,-0.233852 0.214149,-0.34778 0.407739,-0.34778 h 1.128147 c 0.190166,0 0.324657,0.113928 0.404321,0.34778 l 0.710122,2.168064 z"
   style="fill:#666666;fill-opacity:1;fill-rule:nonzero;stroke:none;stroke-width:0.85660338"
   id="path36"
   inkscape:connector-curvature="0" /><path
   d="m 73.056876,16.259269 -0.970528,-2.877331 -0.973958,2.877331 z m 3.152302,2.710292 c 0.03341,0.08052 0.04966,0.140483 0.04966,0.180744 0,0.07367 -0.02653,0.13363 -0.07966,0.187596 -0.05056,0.04968 -0.113926,0.07709 -0.184166,0.07709 h -1.512763 c -0.133631,0 -0.240708,-0.02998 -0.317803,-0.0908 -0.07366,-0.05996 -0.124207,-0.130203 -0.147335,-0.210724 l -0.33748,-0.99366 h -3.189135 l -0.334936,0.99366 c -0.02653,0.08052 -0.07709,0.150762 -0.149904,0.210724 -0.07709,0.06082 -0.180741,0.0908 -0.318656,0.0908 h -1.5119 c -0.07025,0 -0.13363,-0.02741 -0.184172,-0.07709 -0.05397,-0.05397 -0.08052,-0.113929 -0.08052,-0.187596 0,-0.04026 0.01715,-0.100223 0.05056,-0.180744 l 2.613494,-7.555241 c 0.03938,-0.110502 0.103653,-0.203872 0.190165,-0.280967 0.09078,-0.07367 0.204705,-0.113928 0.34776,-0.113928 h 1.944486 c 0.143909,0 0.257841,0.04026 0.347785,0.113928 0.08737,0.07709 0.150758,0.170465 0.19102,0.280967 z"
   style="fill:#666666;fill-opacity:1;fill-rule:nonzero;stroke:none;stroke-width:0.85660338"
   id="path38"
   inkscape:connector-curvature="0" /><path
   d="m 82.37587,19.324195 c -0.0908,-0.05996 -0.15077,-0.119924 -0.18075,-0.184169 l -2.74713,-4.102274 v 4.05259 c 0,0.08994 -0.0334,0.163612 -0.0968,0.227001 -0.0642,0.06767 -0.13706,0.09765 -0.22786,0.09765 h -1.569294 c -0.08737,0 -0.163607,-0.02998 -0.227853,-0.09765 -0.06341,-0.06339 -0.0968,-0.137057 -0.0968,-0.227001 v -7.746264 c 0,-0.08737 0.03341,-0.164468 0.0968,-0.227856 0.06425,-0.06339 0.140479,-0.0968 0.227853,-0.0968 h 1.248074 c 0.11736,0 0.221,0.02998 0.31095,0.08994 0.0874,0.06082 0.14733,0.120781 0.17731,0.187596 l 2.74713,4.098847 v -4.051734 c 0,-0.08737 0.0334,-0.164468 0.0977,-0.227856 0.0634,-0.06339 0.14048,-0.0968 0.227,-0.0968 h 1.5693 c 0.0908,0 0.16446,0.03341 0.23128,0.0968 0.0634,0.06339 0.0934,0.140482 0.0934,0.227856 v 7.746264 c 0,0.08994 -0.03,0.163612 -0.0934,0.227001 -0.0668,0.06767 -0.14049,0.09765 -0.23128,0.09765 h -1.24465 c -0.11992,0 -0.22443,-0.02998 -0.31094,-0.0908"
   style="fill:#666666;fill-opacity:1;fill-rule:nonzero;stroke:none;stroke-width:0.85660338"
   id="path40"
   inkscape:connector-curvature="0" /><path
   d="m 86.03271,19.317343 c -0.0634,-0.06339 -0.0968,-0.140483 -0.0968,-0.227001 v -7.746264 c 0,-0.08737 0.0334,-0.164468 0.0968,-0.227856 0.0643,-0.06339 0.13791,-0.0968 0.22785,-0.0968 h 1.5693 c 0.0908,0 0.16447,0.03341 0.22786,0.0968 0.0634,0.06339 0.0968,0.140482 0.0968,0.227856 v 7.746264 c 0,0.08652 -0.0334,0.163612 -0.0968,0.227001 -0.0634,0.06767 -0.13706,0.09765 -0.22786,0.09765 h -1.5693 c -0.0899,0 -0.16361,-0.02998 -0.22785,-0.09765"
   style="fill:#666666;fill-opacity:1;fill-rule:nonzero;stroke:none;stroke-width:0.85660338"
   id="path42"
   inkscape:connector-curvature="0" /><path
   d="m 93.96999,16.259269 -0.97053,-2.877331 -0.97053,2.877331 z m 3.15573,2.710292 c 0.03,0.08052 0.0463,0.140483 0.0463,0.180744 0,0.07367 -0.0265,0.13363 -0.0762,0.187596 -0.054,0.04968 -0.11394,0.07709 -0.1876,0.07709 h -1.50934 c -0.13705,0 -0.2407,-0.02998 -0.31779,-0.0908 -0.0771,-0.05996 -0.12679,-0.130203 -0.15077,-0.210724 l -0.33408,-0.99366 h -3.19256 l -0.33493,0.99366 c -0.0231,0.08052 -0.0737,0.150762 -0.14991,0.210724 -0.0771,0.06082 -0.18074,0.0908 -0.31865,0.0908 h -1.50848 c -0.0737,0 -0.13363,-0.02741 -0.1876,-0.07709 -0.0506,-0.05397 -0.0771,-0.113929 -0.0771,-0.187596 0,-0.04026 0.0172,-0.100223 0.0471,-0.180744 l 2.61695,-7.555241 c 0.0368,-0.110502 0.10022,-0.203872 0.19016,-0.280967 0.0874,-0.07367 0.20387,-0.113928 0.34778,-0.113928 h 1.94106 c 0.14391,0 0.26127,0.04026 0.34779,0.113928 0.0908,0.07709 0.15419,0.170465 0.19444,0.280967 z"
   style="fill:#666666;fill-opacity:1;fill-rule:nonzero;stroke:none;stroke-width:0.85660338"
   id="path44"
   inkscape:connector-curvature="0" /><path
   d="m 21.074757,29.044931 c 0.776937,0 1.164978,-0.298098 1.164978,-0.886585 0,-0.59277 -0.388041,-0.890011 -1.164978,-0.890011 h -1.355145 v 1.776596 z m 2.49614,-2.945003 c 0.592772,0.459139 0.887445,1.144422 0.887445,2.058418 0,1.157271 -0.475414,1.957338 -1.42539,2.39592 l 1.485351,2.854202 c 0.02313,0.04968 0.03681,0.09337 0.03681,0.13363 0,0.07024 -0.02653,0.13363 -0.08052,0.18417 -0.04966,0.05311 -0.113932,0.07966 -0.184171,0.07966 h -1.632681 c -0.14391,0 -0.250987,-0.02998 -0.321227,-0.08994 -0.07367,-0.05996 -0.13363,-0.137057 -0.180747,-0.233853 l -1.332016,-2.566383 h -1.104158 v 2.566384 c 0,0.08652 -0.03,0.163611 -0.09337,0.227 -0.06341,0.06339 -0.140479,0.0968 -0.227852,0.0968 h -1.572724 c -0.08652,0 -0.163614,-0.03341 -0.227004,-0.0968 -0.06341,-0.06339 -0.09679,-0.140483 -0.09679,-0.227 v -7.746265 c 0,-0.08737 0.03341,-0.164467 0.09679,-0.227856 0.06341,-0.06682 0.140485,-0.0968 0.227004,-0.0968 h 3.249095 c 1.07418,0 1.904229,0.230426 2.49614,0.688709"
   style="fill:#666666;fill-opacity:1;fill-rule:nonzero;stroke:none;stroke-width:0.85660338"
   id="path46"
   inkscape:connector-curvature="0" /><path
   d="m 28.055216,31.885427 h 3.791331 c 0.08651,0 0.163607,0.03341 0.226998,0.09765 0.06341,0.06339 0.09765,0.140483 0.09765,0.227 v 1.272056 c 0,0.08652 -0.03424,0.163611 -0.09765,0.227 -0.06341,0.06339 -0.140485,0.0968 -0.226998,0.0968 h -5.685281 c -0.08737,0 -0.163607,-0.03341 -0.227852,-0.0968 -0.06341,-0.06339 -0.0968,-0.140483 -0.0968,-0.227 v -7.746265 c 0,-0.0908 0.03341,-0.164467 0.0968,-0.227856 0.06424,-0.06682 0.140478,-0.0968 0.227852,-0.0968 h 5.587628 c 0.0908,0 0.164468,0.02998 0.227852,0.0968 0.06341,0.06339 0.0968,0.137057 0.0968,0.227856 v 1.2712 c 0,0.08737 -0.03341,0.163611 -0.0968,0.227856 -0.06341,0.06339 -0.137054,0.09337 -0.227852,0.09337 h -3.693678 v 1.295185 h 3.429842 c 0.08994,0 0.163614,0.03341 0.226998,0.0968 0.06768,0.06339 0.09765,0.140484 0.09765,0.227857 v 1.271199 c 0,0.08737 -0.03,0.163612 -0.09765,0.227857 -0.06341,0.06339 -0.137054,0.0968 -0.226998,0.0968 h -3.429842 z"
   style="fill:#666666;fill-opacity:1;fill-rule:nonzero;stroke:none;stroke-width:0.85660338"
   id="path48"
   inkscape:connector-curvature="0" /><path
   d="m 40.696973,33.542098 c 0,0.07024 -0.02743,0.13363 -0.07709,0.18417 -0.05397,0.05311 -0.113932,0.07966 -0.187596,0.07966 h -1.906799 c -0.104508,0 -0.191027,-0.02313 -0.264691,-0.06681 -0.07024,-0.04283 -0.14734,-0.113072 -0.227858,-0.210725 l -2.264858,-2.854202 v 2.807946 c 0,0.08652 -0.03341,0.163611 -0.0968,0.227 -0.06424,0.06339 -0.141339,0.0968 -0.227859,0.0968 h -1.569293 c -0.0908,0 -0.167037,-0.03341 -0.231283,-0.0968 -0.06341,-0.06339 -0.09337,-0.140483 -0.09337,-0.227 v -7.746265 c 0,-0.08737 0.03,-0.164467 0.09337,-0.227856 0.06425,-0.06682 0.140479,-0.0968 0.231283,-0.0968 h 1.569293 c 0.08652,0 0.163614,0.02998 0.227859,0.0968 0.06341,0.06339 0.0968,0.140483 0.0968,0.227856 v 2.52955 l 2.111524,-2.590369 c 0.06341,-0.07966 0.126781,-0.143909 0.190166,-0.193592 0.06341,-0.04711 0.161043,-0.07024 0.287818,-0.07024 h 1.870822 c 0.07367,0 0.13363,0.02655 0.187596,0.07709 0.04966,0.05311 0.07624,0.113072 0.07624,0.186739 0,0.04711 -0.01285,0.0908 -0.03681,0.131061 l -2.961276,3.623432 3.166006,3.978923 c 0.02313,0.03341 0.03681,0.07709 0.03681,0.13363"
   style="fill:#666666;fill-opacity:1;fill-rule:nonzero;stroke:none;stroke-width:0.85660338"
   id="path50"
   inkscape:connector-curvature="0" /><path
   d="m 47.723689,31.98308 c 0.06341,0.06339 0.0968,0.140483 0.0968,0.227 v 1.272056 c 0,0.08652 -0.03341,0.163611 -0.0968,0.227 -0.06341,0.06339 -0.140485,0.0968 -0.227858,0.0968 H 41.94504 c -0.0908,0 -0.164467,-0.03341 -0.231283,-0.0968 -0.06341,-0.06339 -0.09337,-0.140483 -0.09337,-0.227 v -7.746265 c 0,-0.0908 0.03,-0.164467 0.09337,-0.227856 0.06682,-0.06339 0.140486,-0.0968 0.231283,-0.0968 h 1.5693 c 0.08652,0 0.163613,0.03341 0.226998,0.0968 0.06424,0.06339 0.09765,0.137057 0.09765,0.227856 v 6.149556 h 3.65684 c 0.08737,0 0.164467,0.03341 0.227858,0.09765"
   style="fill:#666666;fill-opacity:1;fill-rule:nonzero;stroke:none;stroke-width:0.85660338"
   id="path52"
   inkscape:connector-curvature="0" /><path
   d="m 53.288183,30.651061 -0.970528,-2.87733 -0.973958,2.87733 z m 3.155727,2.710294 c 0.03,0.08052 0.04626,0.140483 0.04626,0.180743 0,0.07024 -0.02653,0.13363 -0.07709,0.18417 -0.05313,0.05311 -0.113071,0.07966 -0.186735,0.07966 h -1.50934 c -0.137054,0 -0.244132,-0.02998 -0.317795,-0.08994 -0.07709,-0.05996 -0.127636,-0.130204 -0.150765,-0.210725 l -0.334929,-0.99366 h -3.191705 l -0.334936,0.99366 c -0.02653,0.08052 -0.07366,0.150763 -0.150758,0.210725 -0.07624,0.05996 -0.183317,0.08994 -0.317802,0.08994 h -1.511903 c -0.07025,0 -0.134491,-0.02655 -0.184172,-0.07966 -0.05397,-0.05054 -0.08052,-0.113928 -0.08052,-0.18417 0,-0.04026 0.01715,-0.100223 0.05056,-0.180743 l 2.612636,-7.555242 c 0.04028,-0.110502 0.104508,-0.204728 0.191027,-0.280966 0.0908,-0.07709 0.203869,-0.113928 0.347779,-0.113928 h 1.944492 c 0.143909,0 0.261259,0.03683 0.347778,0.113928 0.08737,0.07624 0.150765,0.170464 0.191021,0.280966 z"
   style="fill:#666666;fill-opacity:1;fill-rule:nonzero;stroke:none;stroke-width:0.85660338"
   id="path54"
   inkscape:connector-curvature="0" /><path
   d="m 59.679301,29.513492 v 3.968644 c 0,0.08652 -0.03,0.163611 -0.09422,0.227 -0.06341,0.06339 -0.140485,0.0968 -0.227004,0.0968 h -1.572726 c -0.08737,0 -0.164468,-0.03341 -0.227852,-0.0968 -0.06341,-0.06339 -0.0968,-0.140483 -0.0968,-0.227 v -7.746265 c 0,-0.08737 0.03341,-0.164467 0.0968,-0.227856 0.06341,-0.06339 0.140478,-0.0968 0.227852,-0.0968 h 1.391983 c 0.224427,0 0.394896,0.107075 0.514816,0.324652 l 1.941068,3.319339 1.944485,-3.319339 c 0.119927,-0.217577 0.290389,-0.324652 0.514823,-0.324652 h 1.391983 c 0.08737,0 0.164468,0.03341 0.227852,0.0968 0.06341,0.06339 0.0968,0.140483 0.0968,0.227856 v 7.746265 c 0,0.08652 -0.03341,0.163611 -0.0968,0.227 -0.06341,0.06339 -0.140479,0.0968 -0.227852,0.0968 h -1.572731 c -0.08651,0 -0.163606,-0.03341 -0.226997,-0.0968 -0.06425,-0.06339 -0.09423,-0.140483 -0.09423,-0.227 v -3.968644 l -1.127286,1.977041 c -0.05737,0.08737 -0.117356,0.161042 -0.187596,0.214151 -0.06681,0.05739 -0.154188,0.08737 -0.257842,0.08737 h -0.765803 c -0.103647,0 -0.191021,-0.02998 -0.257836,-0.08737 -0.07024,-0.05311 -0.130205,-0.126778 -0.187596,-0.214151 z"
   style="fill:#666666;fill-opacity:1;fill-rule:nonzero;stroke:none;stroke-width:0.85660338"
   id="path56"
   inkscape:connector-curvature="0" /><path
   d="m 71.91931,27.586135 c -0.250986,-0.250985 -0.6159,-0.378619 -1.084459,-0.378619 -0.471137,0 -0.83605,0.127634 -1.08703,0.378619 -0.250987,0.254411 -0.398321,0.588486 -0.438583,1.013361 -0.02313,0.264691 -0.03341,0.596196 -0.03341,0.997087 0,0.391467 0.01028,0.729826 0.03341,1.017645 0.04028,0.424875 0.187596,0.763233 0.438583,1.014218 0.25098,0.250128 0.615893,0.377762 1.08703,0.377762 0.468559,0 0.833473,-0.127634 1.084459,-0.377762 0.250981,-0.250985 0.398321,-0.589343 0.438577,-1.014218 0.02313,-0.287819 0.03341,-0.626178 0.03341,-1.017645 0,-0.400891 -0.01028,-0.732396 -0.03341,-0.997087 -0.04028,-0.424875 -0.187596,-0.75895 -0.438577,-1.013361 m 0.87973,-1.863969 c 0.552509,0.287819 0.977382,0.679286 1.27805,1.16755 0.301529,0.49169 0.465136,1.0442 0.498543,1.649818 0.01368,0.22443 0.02396,0.585917 0.02396,1.081034 0,0.488263 -0.01028,0.839471 -0.02396,1.053622 -0.03341,0.609045 -0.197014,1.158128 -0.498543,1.649818 -0.300668,0.491691 -0.725541,0.879732 -1.27805,1.170977 -0.551655,0.287819 -1.207811,0.431728 -1.964189,0.431728 -0.758955,0 -1.415111,-0.143909 -1.967621,-0.431728 -0.551651,-0.291245 -0.976524,-0.679286 -1.278047,-1.170977 -0.300667,-0.49169 -0.465135,-1.040773 -0.498543,-1.649818 -0.01285,-0.431728 -0.02313,-0.782935 -0.02313,-1.053622 0,-0.271543 0.01028,-0.632173 0.02313,-1.081034 0.03341,-0.605618 0.197876,-1.158128 0.498543,-1.649818 0.301523,-0.488264 0.726396,-0.879731 1.278047,-1.16755 0.55251,-0.287819 1.208666,-0.431728 1.967621,-0.431728 0.756378,0 1.412534,0.143909 1.964189,0.431728"
   style="fill:#666666;fill-opacity:1;fill-rule:nonzero;stroke:none;stroke-width:0.85660338"
   id="path58"
   inkscape:connector-curvature="0" /><path
   d="m 82.57288,25.735871 c 0.024,-0.113928 0.0703,-0.194449 0.13792,-0.247558 0.0702,-0.05054 0.14648,-0.07709 0.23727,-0.07709 h 1.5693 c 0.0737,0 0.13363,0.02655 0.18418,0.07709 0.0531,0.05311 0.0805,0.113072 0.0805,0.186739 l -0.0137,0.09423 -1.54617,7.57837 c -0.0162,0.113928 -0.0831,0.217577 -0.19703,0.31523 -0.11735,0.09337 -0.25098,0.143053 -0.40174,0.143053 h -0.99709 c -0.15076,0 -0.28096,-0.04626 -0.38461,-0.140483 -0.10365,-0.08994 -0.17389,-0.197019 -0.21415,-0.3178 l -0.90029,-2.706867 -0.9003,2.706867 c -0.0403,0.120781 -0.1105,0.227856 -0.21414,0.3178 -0.10365,0.09423 -0.23386,0.140483 -0.38462,0.140483 h -0.993675 c -0.154189,0 -0.287819,-0.04968 -0.401752,-0.143053 -0.11735,-0.09765 -0.184165,-0.201302 -0.200445,-0.31523 l -1.546165,-7.57837 -0.01368,-0.09423 c 0,-0.07367 0.02743,-0.13363 0.08052,-0.186739 0.05056,-0.05054 0.113926,-0.07709 0.187596,-0.07709 h 1.569293 c 0.08652,0 0.163614,0.02655 0.233853,0.07709 0.06682,0.05311 0.113932,0.13363 0.137061,0.247558 l 0.770084,4.051735 0.70584,-2.17149 c 0.0805,-0.231283 0.21415,-0.347781 0.4086,-0.347781 h 1.12729 c 0.19102,0 0.32808,0.116498 0.40517,0.347781 l 0.70927,2.17149 z"
   style="fill:#666666;fill-opacity:1;fill-rule:nonzero;stroke:none;stroke-width:0.85660338"
   id="path60"
   inkscape:connector-curvature="0" /><path
   d="m 88.17421,31.885427 h 3.7879 c 0.0908,0 0.16447,0.03341 0.22786,0.09765 0.0668,0.06339 0.0968,0.140483 0.0968,0.227 v 1.272056 c 0,0.08652 -0.03,0.163611 -0.0968,0.227 -0.0634,0.06339 -0.13706,0.0968 -0.22786,0.0968 h -5.68099 c -0.0908,0 -0.16447,-0.03341 -0.23128,-0.0968 -0.0634,-0.06339 -0.0934,-0.140483 -0.0934,-0.227 v -7.746265 c 0,-0.0908 0.03,-0.164467 0.0934,-0.227856 0.0668,-0.06682 0.14048,-0.0968 0.23128,-0.0968 h 5.58763 c 0.0874,0 0.1636,0.02998 0.22785,0.0968 0.0634,0.06339 0.0934,0.137057 0.0934,0.227856 v 1.2712 c 0,0.08737 -0.03,0.163611 -0.0934,0.227856 -0.0642,0.06339 -0.14048,0.09337 -0.22785,0.09337 h -3.69454 v 1.295185 h 3.42985 c 0.0874,0 0.16446,0.03341 0.22785,0.0968 0.0634,0.06339 0.0968,0.140484 0.0968,0.227857 v 1.271199 c 0,0.08737 -0.0334,0.163612 -0.0968,0.227857 -0.0634,0.06339 -0.14048,0.0968 -0.22785,0.0968 h -3.42985 z"
   style="fill:#666666;fill-opacity:1;fill-rule:nonzero;stroke:none;stroke-width:0.85660338"
   id="path62"
   inkscape:connector-curvature="0" /><path
   d="m 95.56242,33.709136 c -0.0668,0.06339 -0.14049,0.0968 -0.23043,0.0968 H 93.7627 c -0.0874,0 -0.16447,-0.03341 -0.22786,-0.0968 -0.0634,-0.06339 -0.0968,-0.140483 -0.0968,-0.227 v -1.572724 c 0,-0.08737 0.0334,-0.164468 0.0968,-0.227857 0.0634,-0.06339 0.14048,-0.09337 0.22786,-0.09337 h 1.56929 c 0.0899,0 0.16361,0.02998 0.23043,0.09337 0.0643,0.06339 0.0942,0.140483 0.0942,0.227857 v 1.572724 c 0,0.08652 -0.03,0.163611 -0.0942,0.227"
   style="fill:#666666;fill-opacity:1;fill-rule:nonzero;stroke:none;stroke-width:0.85660338"
   id="path64"
   inkscape:connector-curvature="0" /><path
   d="m 100.80312,29.165712 c 0.35121,0 0.63217,-0.08052 0.84289,-0.23471 0.21416,-0.156758 0.31781,-0.394894 0.31781,-0.712694 0,-0.321226 -0.10365,-0.558505 -0.31781,-0.716121 -0.21072,-0.154188 -0.49168,-0.233852 -0.84289,-0.233852 h -1.47593 v 1.897377 z m 2.49957,-3.041799 c 0.58848,0.474558 0.87973,1.174403 0.87973,2.094395 0,0.916566 -0.29125,1.616411 -0.87973,2.097822 -0.58934,0.478841 -1.40226,0.719547 -2.43961,0.719547 h -1.53589 v 2.446459 c 0,0.08652 -0.0334,0.163611 -0.0968,0.227 -0.0642,0.06339 -0.14048,0.0968 -0.22785,0.0968 h -1.5693 c -0.0899,0 -0.16361,-0.03341 -0.23043,-0.0968 -0.0642,-0.06339 -0.0942,-0.140483 -0.0942,-0.227 v -7.746265 c 0,-0.0908 0.03,-0.164467 0.0942,-0.231283 0.0668,-0.05996 0.14049,-0.09337 0.23043,-0.09337 h 3.42984 c 1.03734,0 1.85026,0.237279 2.43961,0.712694"
   style="fill:#666666;fill-opacity:1;fill-rule:nonzero;stroke:none;stroke-width:0.85660338"
   id="path66"
   inkscape:connector-curvature="0" /><path
   d="m 111.1526,31.98308 c 0.0634,0.06339 0.0934,0.140483 0.0934,0.227 v 1.272056 c 0,0.08652 -0.03,0.163611 -0.0934,0.227 -0.0668,0.06339 -0.14048,0.0968 -0.23128,0.0968 h -5.55079 c -0.0874,0 -0.16447,-0.03341 -0.22786,-0.0968 -0.0634,-0.06339 -0.0968,-0.140483 -0.0968,-0.227 v -7.746265 c 0,-0.0908 0.0334,-0.164467 0.0968,-0.227856 0.0634,-0.06339 0.14049,-0.0968 0.22786,-0.0968 h 1.57272 c 0.0865,0 0.16019,0.03341 0.227,0.0968 0.0634,0.06339 0.0942,0.137057 0.0942,0.227856 v 6.149556 h 3.65684 c 0.0908,0 0.16447,0.03341 0.23128,0.09765"
   style="fill:#666666;fill-opacity:1;fill-rule:nonzero;stroke:none;stroke-width:0.85660338"
   id="path68"
   inkscape:connector-curvature="0" /><g
   transform="matrix(0.8566034,0,0,0.8566034,-58.073683,-86.814104)"
   id="g70"><path
     d="m 68.109,150.887 143.344,0.148"
     style="fill:none;stroke:#3193df;stroke-width:6.99279118;stroke-linecap:butt;stroke-linejoin:miter;stroke-miterlimit:10;stroke-dasharray:none;stroke-opacity:1"
     id="path72"
     inkscape:connector-curvature="0" /></g></svg>